<svg width="50" height="50" viewBox="0 0 50 50" fill="none" xmlns="http://www.w3.org/2000/svg">
<rect x="1" y="1" width="48" height="48" rx="4" fill="#F12386" stroke="#F12386" stroke-width="2"/>
<g clip-path="url(#clip0)">
<path d="M35.5 13H14.5C14.1022 13 13.7206 13.158 13.4393 13.4393C13.158 13.7206 13 14.1022 13 14.5V28.25C13 28.3163 13.0263 28.3799 13.0732 28.4268C13.1201 28.4737 13.1837 28.5 13.25 28.5H36.75C36.8163 28.5 36.8799 28.4737 36.9268 28.4268C36.9737 28.3799 37 28.3163 37 28.25V14.5C37 14.1022 36.842 13.7206 36.5607 13.4393C36.2794 13.158 35.8978 13 35.5 13V13ZM29.25 16.25C29.25 16.0511 29.329 15.8603 29.4697 15.7197C29.6103 15.579 29.8011 15.5 30 15.5C30.1989 15.5 30.3897 15.579 30.5303 15.7197C30.671 15.8603 30.75 16.0511 30.75 16.25V18C30.75 18.1989 30.671 18.3897 30.5303 18.5303C30.3897 18.671 30.1989 18.75 30 18.75C29.8011 18.75 29.6103 18.671 29.4697 18.5303C29.329 18.3897 29.25 18.1989 29.25 18V16.25ZM19.25 16.25C19.25 16.0511 19.329 15.8603 19.4697 15.7197C19.6103 15.579 19.8011 15.5 20 15.5C20.1989 15.5 20.3897 15.579 20.5303 15.7197C20.671 15.8603 20.75 16.0511 20.75 16.25V18C20.75 18.1989 20.671 18.3897 20.5303 18.5303C20.3897 18.671 20.1989 18.75 20 18.75C19.8011 18.75 19.6103 18.671 19.4697 18.5303C19.329 18.3897 19.25 18.1989 19.25 18V16.25ZM20.75 25.25C20.75 25.4489 20.671 25.6397 20.5303 25.7803C20.3897 25.921 20.1989 26 20 26C19.8011 26 19.6103 25.921 19.4697 25.7803C19.329 25.6397 19.25 25.4489 19.25 25.25V24.5C19.25 24.3011 19.329 24.1103 19.4697 23.9697C19.6103 23.829 19.8011 23.75 20 23.75C20.1989 23.75 20.3897 23.829 20.5303 23.9697C20.671 24.1103 20.75 24.3011 20.75 24.5V25.25ZM20.119 22.764C19.8227 22.7787 19.5287 22.7051 19.2742 22.5527C19.0197 22.4003 18.8161 22.1759 18.6892 21.9078C18.5622 21.6397 18.5176 21.34 18.561 21.0465C18.6044 20.7531 18.7338 20.4791 18.9328 20.2591C19.1319 20.0392 19.3918 19.8833 19.6795 19.811C19.9672 19.7388 20.2698 19.7534 20.5492 19.8532C20.8286 19.9529 21.0721 20.1332 21.249 20.3714C21.4259 20.6095 21.5282 20.8947 21.543 21.191C21.5528 21.3878 21.5238 21.5846 21.4575 21.7702C21.3913 21.9557 21.2891 22.1264 21.1569 22.2725C21.0246 22.4186 20.8649 22.5372 20.6868 22.6215C20.5088 22.7058 20.3158 22.7543 20.119 22.764ZM25.75 25.251C25.75 25.4499 25.671 25.6407 25.5303 25.7813C25.3897 25.922 25.1989 26.001 25 26.001C24.8011 26.001 24.6103 25.922 24.4697 25.7813C24.329 25.6407 24.25 25.4499 24.25 25.251V20.5C24.25 20.3011 24.329 20.1103 24.4697 19.9697C24.6103 19.829 24.8011 19.75 25 19.75C25.1989 19.75 25.3897 19.829 25.5303 19.9697C25.671 20.1103 25.75 20.3011 25.75 20.5V25.251ZM26.544 17.337C26.5292 17.6333 26.4269 17.9185 26.25 18.1566C26.0731 18.3948 25.8296 18.5751 25.5502 18.6748C25.2708 18.7746 24.9682 18.7892 24.6805 18.717C24.3928 18.6447 24.1329 18.4888 23.9338 18.2689C23.7348 18.0489 23.6054 17.7749 23.562 17.4815C23.5186 17.188 23.5632 16.8883 23.6902 16.6202C23.8171 16.3521 24.0207 16.1277 24.2752 15.9753C24.5297 15.8229 24.8237 15.7493 25.12 15.764C25.3168 15.7737 25.5098 15.8222 25.6878 15.9065C25.8659 15.9908 26.0256 16.1094 26.1579 16.2555C26.2901 16.4016 26.3923 16.5723 26.4585 16.7578C26.5248 16.9434 26.5538 17.1402 26.544 17.337ZM30.75 25.251C30.75 25.4499 30.671 25.6407 30.5303 25.7813C30.3897 25.922 30.1989 26.001 30 26.001C29.8011 26.001 29.6103 25.922 29.4697 25.7813C29.329 25.6407 29.25 25.4499 29.25 25.251V24.5C29.25 24.3011 29.329 24.1103 29.4697 23.9697C29.6103 23.829 29.8011 23.75 30 23.75C30.1989 23.75 30.3897 23.829 30.5303 23.9697C30.671 24.1103 30.75 24.3011 30.75 24.5V25.251ZM30.12 22.764C29.8237 22.7789 29.5296 22.7055 29.275 22.5532C29.0204 22.401 28.8166 22.1766 28.6895 21.9085C28.5624 21.6405 28.5176 21.3407 28.5609 21.0472C28.6041 20.7537 28.7335 20.4796 28.9325 20.2596C29.1315 20.0396 29.3913 19.8835 29.6791 19.8112C29.9668 19.7388 30.2695 19.7534 30.5489 19.8531C30.8284 19.9528 31.072 20.1331 31.2489 20.3713C31.4258 20.6094 31.5282 20.8947 31.543 21.191C31.5629 21.5883 31.4241 21.9772 31.1572 22.2722C30.8904 22.5672 30.5173 22.7441 30.12 22.764Z" fill="#FAFAFF"/>
<path d="M36.75 30H13.25C13.1837 30 13.1201 30.0263 13.0732 30.0732C13.0263 30.1201 13 30.1837 13 30.25V31.5C13 31.8978 13.158 32.2794 13.4393 32.5607C13.7206 32.842 14.1022 33 14.5 33H22.8L20.551 36.214C20.4988 36.2889 20.4681 36.3766 20.4622 36.4677C20.4563 36.5588 20.4754 36.6498 20.5176 36.7308C20.5597 36.8118 20.6232 36.8797 20.7012 36.9271C20.7792 36.9746 20.8687 36.9998 20.96 37H29.04C29.1315 36.9999 29.2211 36.9748 29.2993 36.9273C29.3774 36.8798 29.4411 36.8117 29.4832 36.7306C29.5254 36.6494 29.5445 36.5583 29.5385 36.467C29.5324 36.3757 29.5015 36.2879 29.449 36.213L27.2 33H35.5C35.8978 33 36.2794 32.842 36.5607 32.5607C36.842 32.2794 37 31.8978 37 31.5V30.25C37 30.1837 36.9737 30.1201 36.9268 30.0732C36.8799 30.0263 36.8163 30 36.75 30Z" fill="#FAFAFF"/>
</g>
<defs>
<clipPath id="clip0">
<rect width="24" height="24" fill="white" transform="translate(13 13)"/>
</clipPath>
</defs>
</svg>
