<svg width="50" height="50" viewBox="0 0 50 50" fill="none" xmlns="http://www.w3.org/2000/svg">
<rect x="1" y="1" width="48" height="48" rx="4" fill="#6C63FF" stroke="#6C63FF" stroke-width="2"/>
<g clip-path="url(#clip0)">
<path d="M32 30.587C31.7348 30.587 31.4804 30.6924 31.2929 30.8799C31.1054 31.0675 31 31.3218 31 31.587V33.75C31 33.8162 30.9738 33.8796 30.9271 33.9265C30.8805 33.9733 30.8171 33.9998 30.751 34L15.251 34.024C15.2181 34.0242 15.1855 34.0178 15.155 34.0053C15.1246 33.9928 15.0969 33.9744 15.0736 33.9512C15.0503 33.928 15.0318 33.9003 15.0191 33.87C15.0065 33.8396 15 33.807 15 33.774V16.749C15 16.6827 15.0263 16.6192 15.0732 16.5723C15.1201 16.5254 15.1837 16.499 15.25 16.499H16.5C16.7652 16.499 17.0196 16.3937 17.2071 16.2062C17.3946 16.0186 17.5 15.7643 17.5 15.499C17.5 15.2338 17.3946 14.9795 17.2071 14.7919C17.0196 14.6044 16.7652 14.499 16.5 14.499H15C14.4731 14.4964 13.9666 14.7028 13.5917 15.0731C13.2167 15.4433 13.004 15.9471 13 16.474V34.025C13.0037 34.552 13.2164 35.056 13.5914 35.4263C13.9664 35.7966 14.473 36.003 15 36H31C31.5268 36.003 32.0333 35.7968 32.4083 35.4267C32.7832 35.0566 32.996 34.5529 33 34.026V31.587C33 31.3218 32.8946 31.0675 32.7071 30.8799C32.5196 30.6924 32.2652 30.587 32 30.587Z" fill="#FAFAFF"/>
<path d="M29.5 16.5H30.75C30.8163 16.5 30.8799 16.5263 30.9268 16.5732C30.9737 16.6201 31 16.6837 31 16.75V17.5C31 17.7652 31.1054 18.0196 31.2929 18.2071C31.4804 18.3946 31.7348 18.5 32 18.5C32.2652 18.5 32.5196 18.3946 32.7071 18.2071C32.8946 18.0196 33 17.7652 33 17.5V16.5C33 15.9696 32.7893 15.4609 32.4142 15.0858C32.0391 14.7107 31.5304 14.5 31 14.5H29.5C29.2348 14.5 28.9804 14.6054 28.7929 14.7929C28.6054 14.9804 28.5 15.2348 28.5 15.5C28.5 15.7652 28.6054 16.0196 28.7929 16.2071C28.9804 16.3946 29.2348 16.5 29.5 16.5Z" fill="#FAFAFF"/>
<path d="M20 17.5H26C26.3978 17.5 26.7794 17.342 27.0607 17.0607C27.342 16.7794 27.5 16.3978 27.5 16V15.5C27.5 15.1022 27.342 14.7206 27.0607 14.4393C26.7794 14.158 26.3978 14 26 14H25C25 13.4696 24.7893 12.9609 24.4142 12.5858C24.0391 12.2107 23.5304 12 23 12C22.4696 12 21.9609 12.2107 21.5858 12.5858C21.2107 12.9609 21 13.4696 21 14H20C19.6022 14 19.2206 14.158 18.9393 14.4393C18.658 14.7206 18.5 15.1022 18.5 15.5V16C18.5 16.3978 18.658 16.7794 18.9393 17.0607C19.2206 17.342 19.6022 17.5 20 17.5Z" fill="#FAFAFF"/>
<path d="M17 22C17 22.2652 17.1054 22.5196 17.2929 22.7071C17.4804 22.8946 17.7348 23 18 23H26C26.2652 23 26.5196 22.8946 26.7071 22.7071C26.8946 22.5196 27 22.2652 27 22C27 21.7348 26.8946 21.4804 26.7071 21.2929C26.5196 21.1054 26.2652 21 26 21H18C17.7348 21 17.4804 21.1054 17.2929 21.2929C17.1054 21.4804 17 21.7348 17 22Z" fill="#FAFAFF"/>
<path d="M18 26C17.7348 26 17.4804 26.1054 17.2929 26.2929C17.1054 26.4804 17 26.7348 17 27C17 27.2652 17.1054 27.5196 17.2929 27.7071C17.4804 27.8946 17.7348 28 18 28H22.5C22.7652 28 23.0196 27.8946 23.2071 27.7071C23.3946 27.5196 23.5 27.2652 23.5 27C23.5 26.7348 23.3946 26.4804 23.2071 26.2929C23.0196 26.1054 22.7652 26 22.5 26H18Z" fill="#FAFAFF"/>
<path d="M36.415 20.2411C36.0373 19.8712 35.5297 19.6641 35.001 19.6641C34.4724 19.6641 33.9648 19.8712 33.587 20.2411L25.718 28.1111C25.6699 28.1589 25.6321 28.2161 25.607 28.2791L24.193 31.8141C24.157 31.9049 24.1483 32.0043 24.1681 32.1C24.1879 32.1957 24.2353 32.2835 24.3044 32.3525C24.3736 32.4216 24.4615 32.4689 24.5572 32.4885C24.6529 32.5081 24.7523 32.4993 24.843 32.4631L28.378 31.0491C28.4412 31.0247 28.4984 30.9872 28.546 30.9391L36.415 23.0701C36.6009 22.8844 36.7482 22.6639 36.8488 22.4211C36.9494 22.1784 37.0011 21.9183 37.0011 21.6556C37.0011 21.3929 36.9494 21.1327 36.8488 20.89C36.7482 20.6473 36.6009 20.4268 36.415 20.2411Z" fill="#FAFAFF"/>
</g>
<defs>
<clipPath id="clip0">
<rect width="24" height="24" fill="white" transform="translate(13 12)"/>
</clipPath>
</defs>
</svg>
