<svg width="105" height="33" viewBox="0 0 105 33" fill="none" xmlns="http://www.w3.org/2000/svg">
<path fill-rule="evenodd" clip-rule="evenodd" d="M86.2506 14.1058H90.6913L90.4303 14.8259C89.6348 17.0215 88.3709 18.7653 86.6893 19.9583C85.007 21.1519 82.9378 21.7723 80.5699 21.7723C74.6126 21.7723 69.9517 16.9995 69.9517 10.9245C69.9517 4.94065 74.5982 0 80.3788 0C84.9096 0 89.288 3.1668 90.488 8.54549L90.5853 8.9828L75.6998 15.2983C76.8865 16.8002 78.6965 17.6325 80.5699 17.6325C81.8838 17.6325 82.9699 17.3442 83.8675 16.8074C84.7651 16.2702 85.5055 15.4654 86.0981 14.3839L86.2506 14.1058ZM80.3788 4.13981C77.5346 4.13981 74.2676 6.66711 74.2676 10.8861C74.2676 11.0898 74.2745 11.279 74.2878 11.4591L85.2052 6.84218C84.033 5.1508 82.2021 4.13981 80.3788 4.13981Z" fill="white"/>
<path d="M23.6236 15.4932L23.977 14.4157L19.5457 14.8943C18.4514 17.3301 16.2627 18.8355 13.6376 18.8355C9.99253 18.8355 6.90322 15.5202 6.90322 11.4041C6.90322 9.36204 7.66353 7.51721 8.87485 6.17651C5.45508 6.72329 2.90576 9.20056 2.90576 12.2858C2.90576 12.393 2.90899 12.4998 2.91509 12.6059C3.4777 18.354 8.03023 22.8882 13.6376 22.8882C18.3168 22.8882 22.1546 19.9706 23.6236 15.4932V15.4932Z" fill="#00FFC2"/>
<path fill-rule="evenodd" clip-rule="evenodd" d="M13.6367 0C18.5922 0.000721488 22.2596 2.98552 23.6397 7.29821L23.9778 8.35591L19.547 7.87035C18.5573 5.59586 16.5624 3.98225 13.6349 3.98225H13.1997C7.98039 3.93932 3.28833 2.4141 0 0L12.1916 0.000360761L13.6367 0V0Z" fill="#FF278F"/>
<path d="M48.3481 0L55.8792 20.8137H60.1044L67.6355 0H63.0567L57.992 14.3886L52.9273 0H48.3481Z" fill="white"/>
<path d="M26.6387 0L34.058 20.5048L30.0729 31.4926L33.9942 32.925L38.3866 20.8137H38.3953L45.926 0H41.3472L36.4865 13.8088L36.2793 14.3799L31.2178 0H26.6387Z" fill="white"/>
<path fill-rule="evenodd" clip-rule="evenodd" d="M94.498 21.275V9.00894C94.498 5.88554 95.6101 3.47255 97.4547 1.92731C99.2924 0.387853 101.797 -0.238997 104.492 0.0814815L104.964 0.137547V4.23034L104.381 4.17717C102.578 4.01259 101.188 4.37647 100.258 5.14873C99.3367 5.91267 98.7762 7.15081 98.7762 8.93225V21.275H94.498Z" fill="white"/>
</svg>
